{
  "title": "Udta Punjab (2016)Tiny 1080p Blu-ray x264 AAC 5.1 ESub -DDR",
  "uid": 15749150,
  "size": 3141432346,
  "categoryP": "video",
  "categoryS": "hd___movies",
  "magnet": "?xt=urn:btih:51ce31607c4296d5e1f87e82458b89b54ef26b66&amp;dn=Udta+Punjab+%282016%29Tiny+1080p+Blu-ray+x264+AAC+5.1+ESub+-DDR&amp;tr=udp%3A%2F%2Ftracker.leechers-paradise.org%3A6969&amp;tr=udp%3A%2F%2Fzer0day.ch%3A1337&amp;tr=udp%3A%2F%2Fopen.demonii.com%3A1337&amp;tr=udp%3A%2F%2Ftracker.coppersurfer.tk%3A6969&amp;tr=udp%3A%2F%2Fexodus.desync.com%3A6969",
  "seeders": 45,
  "leechers": 18,
  "uploader": "SaM",
  "files": 3,
  "time": 1473009049,
  "description": "** UDTA PUNJAB **\r\n\r\n** 2016**\r\n\r\n** Tiny 1080p / Blu-ray Rip / x264\r\n\r\nHindi AAC 5.1 **\r\n\r\n** English Subtitle(s) **\r\n\r\n\r\n\r\n[ SCREENS ]\r\n \nhttp://extraimago.com/image/wQ7p \nhttp://extraimago.com/image/wQ7Y \nhttp://extraimago.com/image/wQ7C \nhttp://extraimago.com/image/wQ7B \nhttp://extraimago.com/image/wQ74 \nhttp://extraimago.com/image/wQ7e \nhttp://extraimago.com/image/wQ7Z \nhttp://extraimago.com/image/wQ7K \nhttp://extraimago.com/image/wQ7J \nhttp://extraimago.com/image/wQ70 \nhttp://extraimago.com/image/wQ7z \nhttp://extraimago.com/image/wQ7U \nhttp://extraimago.com/image/wQ7M \nhttp://extraimago.com/image/wQ79 \nhttp://extraimago.com/image/wQ73 \nhttp://extraimago.com/image/wQ7b \nhttp://extraimago.com/image/wQ7h \nhttp://extraimago.com/image/wQ7d\r\n\r\n[ Info ]\r\n\r\nSource = BD50 @ DDR\r\n\r\nFormat : Matroska\r\nFile size : 2.88 GiB\r\nDuration : 2 h 26 min\r\nOverall bit rate : 2 811 kb/s\r\n\r\n\r\nVideo\r\nFormat : AVC\r\nFormat/Info : Advanced Video Codec\r\nFormat profile :   \r\nFormat settings, CABAC : Yes\r\nFormat settings, ReFrames : 5 frames\r\nCodec ID : V_MPEG4/ISO/AVC\r\nDuration : 2 h 26 min\r\nBit rate : 2 614 kb/s\r\nWidth : 1 920 pixels\r\nHeight : 800 pixels\r\nDisplay aspect ratio : 2.40:1\r\nFrame rate mode : Constant\r\nFrame rate : 24.000 FPS\r\ncolor space : YUV\r\nChroma subsampling : 4:2:0\r\nBit depth : 8 bits\r\nScan type : Progressive\r\nBits/(Pixel*Frame) : 0.071\r\nStream size : 2.68 GiB (93%)\r\nLanguage : English\r\nDefault : Yes\r\nForced : No\r\ncolor range : Limited\r\ncolor primaries : BT.709\r\nTransfer characteristics : BT.709\r\nMatrix coefficients : BT.709\r\n\r\nAudio\r\nFormat : AAC\r\nFormat/Info : Advanced Audio Codec\r\nFormat profile : LC\r\nCodec ID : A_AAC\r\nDuration : 2 h 26 min\r\nBit rate : 192 kb/s\r\nChannel(s) : 6 channels\r\nChannel positions : Front: L C R, Side: L R, LFE\r\nSampling rate : 48.0 kHz\r\nFrame rate : 46.875 FPS (1024 spf)\r\nCompression mode : Lossy\r\nDelay relative to video : 11 ms\r\nStream size : 201 MiB (7%)\r\nLanguage : Hindi\r\nDefault : Yes\r\nForced : No\r\n\r\n\r\nChapters = YES",
  "parsed": {
    "xt": "urn:btih:51ce31607c4296d5e1f87e82458b89b54ef26b66",
    "dn": "Udta Punjab (2016)Tiny 1080p Blu-ray x264 AAC 5.1 ESub -DDR",
    "tr": [
      "udp://exodus.desync.com:6969",
      "udp://open.demonii.com:1337",
      "udp://tracker.coppersurfer.tk:6969",
      "udp://tracker.leechers-paradise.org:6969",
      "udp://zer0day.ch:1337"
    ],
    "infoHash": "51ce31607c4296d5e1f87e82458b89b54ef26b66",
    "infoHashBuffer": {
      "type": "Buffer",
      "data": [
        81,
        206,
        49,
        96,
        124,
        66,
        150,
        213,
        225,
        248,
        126,
        130,
        69,
        139,
        137,
        181,
        78,
        242,
        107,
        102
      ]
    },
    "name": "Udta Punjab (2016)Tiny 1080p Blu-ray x264 AAC 5.1 ESub -DDR",
    "announce": [
      "udp://exodus.desync.com:6969",
      "udp://open.demonii.com:1337",
      "udp://tracker.coppersurfer.tk:6969",
      "udp://tracker.leechers-paradise.org:6969",
      "udp://zer0day.ch:1337"
    ],
    "urlList": []
  },
  "previous": 101,
  "peers": 33,
  "last_updated": "2016-12-27T00:14:06.098Z"
}